<svg id="bg_about_the_game" data-name="bg about the game" xmlns="http://www.w3.org/2000/svg" xmlns:xlink="http://www.w3.org/1999/xlink" width="360" height="640" viewBox="0 0 360 640">
  <defs>
    <style>
      .cls-1 {
        fill: none;
      }

      .cls-2 {
        clip-path: url(#clip-path);
      }

      .cls-3 {
        fill: url(#radial-gradient);
      }

      .cls-4 {
        opacity: 0.1;
      }

      .cls-5 {
        fill: url(#linear-gradient);
      }

      .cls-6 {
        fill: #b200ff;
      }

      .cls-13, .cls-7, .cls-8 {
        fill: #fff;
      }

      .cls-8 {
        opacity: 0.35;
      }

      .cls-9 {
        fill: #ffd500;
      }

      .cls-10 {
        fill: url(#linear-gradient-3);
      }

      .cls-11 {
        fill: url(#linear-gradient-4);
      }

      .cls-12 {
        fill: url(#linear-gradient-5);
      }

      .cls-13 {
        opacity: 0.2;
      }

      .cls-14 {
        fill: url(#linear-gradient-6);
      }

      .cls-15 {
        fill: url(#linear-gradient-10);
      }

      .cls-16 {
        fill: #ffec00;
      }

      .cls-17 {
        fill: #4d2899;
      }

      .cls-18 {
        fill: aqua;
      }

      .cls-19 {
        fill: #0707ff;
      }
    </style>
    <clipPath id="clip-path">
      <rect id="Rectangle_2410" data-name="Rectangle 2410" class="cls-1" width="360" height="640"/>
    </clipPath>
    <radialGradient id="radial-gradient" cx="0.222" cy="0.2" r="0.757" gradientTransform="matrix(0.702, -0.713, 0.701, 0.69, -0.074, 0.22)" gradientUnits="objectBoundingBox">
      <stop offset="0" stop-color="#b200ff"/>
      <stop offset="1" stop-color="#590080"/>
    </radialGradient>
    <linearGradient id="linear-gradient" y1="0.5" x2="1" y2="0.5" gradientUnits="objectBoundingBox">
      <stop offset="0" stop-color="#fff" stop-opacity="0.2"/>
      <stop offset="1" stop-color="#fff" stop-opacity="0"/>
    </linearGradient>
    <linearGradient id="linear-gradient-3" x1="1.68" y1="0.5" x2="2.68" y2="0.5" xlink:href="#linear-gradient"/>
    <linearGradient id="linear-gradient-4" x1="0.507" y1="0.077" x2="0.498" y2="1.335" xlink:href="#linear-gradient"/>
    <linearGradient id="linear-gradient-5" x1="2.109" y1="0.5" x2="3.27" y2="0.5" xlink:href="#linear-gradient"/>
    <linearGradient id="linear-gradient-6" x1="0.123" y1="0.651" x2="0.38" y2="0.485" gradientUnits="objectBoundingBox">
      <stop offset="0" stop-color="#fff" stop-opacity="0.502"/>
      <stop offset="1" stop-color="#fff" stop-opacity="0"/>
    </linearGradient>
    <linearGradient id="linear-gradient-10" x1="0.11" y1="0.249" x2="0.425" y2="0.456" xlink:href="#linear-gradient-6"/>
  </defs>
  <g id="Group_6472" data-name="Group 6472" class="cls-2">
    <g id="Group_6471" data-name="Group 6471" transform="translate(-880.846 -335.326)">
      <rect id="blue_bg" data-name="blue bg" class="cls-3" width="1920" height="640" transform="translate(114.017 335.326)"/>
      <g id="Group_6466" data-name="Group 6466" class="cls-4" transform="translate(413.483 221.499)">
        <g id="Group_6464" data-name="Group 6464" transform="translate(670.344 96.334)">
          <path id="Path_3884" data-name="Path 3884" class="cls-5" d="M1533.515-293.391c-1.533,4-564.761,330.741-564.761,330.741l702.717-83.415Z" transform="translate(-963.298 298.532)"/>
          <path id="Path_3885" data-name="Path 3885" class="cls-6" d="M968.754,261.617,1656.909,63.964,1640.048,180.83Z" transform="translate(-963.298 74.264)"/>
          <path id="Path_3886" data-name="Path 3886" class="cls-7" d="M960.073,226.231l295.072-116.412v26.846L1613.063,4.149v115.38L1228.32,166.938l-2.3-9.71Z" transform="translate(-960.073 111.803)"/>
          <path id="Path_3887" data-name="Path 3887" class="cls-8" d="M960.073,591.152l295.072,160.483V714.627L1613.063,897.31V738.249L1228.32,672.893l-2.3,13.386Z" transform="translate(-960.073 -256.587)"/>
          <path id="Path_3888" data-name="Path 3888" class="cls-5" d="M1417.39-136.683l276.678-170.511,80.474,31.987Z" transform="translate(-1129.983 307.194)"/>
          <path id="Path_3889" data-name="Path 3889" class="cls-9" d="M1563.732,641.409l303.5-7.3,20.693,58.985Z" transform="translate(-1184.354 -283.547)"/>
          <path id="Path_3890" data-name="Path 3890" class="cls-9" d="M1433.244,1099.218l232.992,90.819L1480,1192.323Z" transform="translate(-1135.873 -575.437)"/>
        </g>
        <path id="Path_3891" data-name="Path 3891" class="cls-10" d="M1046.239-164.559c1.533,4-211.558,277.017-211.558,277.017L624.707-161.132Z" transform="translate(-165.129 314.014)"/>
        <path id="Path_3892" data-name="Path 3892" class="cls-11" d="M625.641,943.623c-1.533-4,211.558-277.017,211.558-277.017L1047.173,940.2Z" transform="translate(-165.473 -207.605)"/>
        <g id="Group_6465" data-name="Group 6465" transform="translate(0)">
          <path id="Path_3893" data-name="Path 3893" class="cls-12" d="M-8.114-565.863c.388,4.148,587.086,459,587.086,459l-632.783-121.1Z" transform="translate(86.965 565.863)"/>
          <path id="Path_3894" data-name="Path 3894" class="cls-13" d="M576.167,104.576,358.946-21.314,351.479,4.948-31.248-197.516-50.96-54.228,373,27.935l3.447-10.043Z" transform="translate(85.906 334.697)"/>
          <path id="Path_3895" data-name="Path 3895" class="cls-6" d="M572.618,588.534l-304.436,149.9,1.458-36.11L-99.165,872.46l6.265-155.2,391.285-55.053,1.8,13.113Z" transform="translate(103.815 -158.609)"/>
          <path id="Path_3896" data-name="Path 3896" class="cls-14" d="M572.618,588.534l-304.436,149.9,1.458-36.11L-99.165,872.46l6.265-155.2,391.285-55.053,1.8,13.113Z" transform="translate(103.815 -158.609)"/>
          <path id="Path_3897" data-name="Path 3897" class="cls-5" d="M452.043-268.525,228.8-478.073l-87.623,18.861Z" transform="translate(14.521 510.768)"/>
          <path id="Path_3898" data-name="Path 3898" class="cls-5" d="M276.27,495.276l-376.562-65.983-6.272,97.5Z" transform="translate(106.564 -58.673)"/>
          <path id="Path_3899" data-name="Path 3899" class="cls-5" d="M475.012,1029.973,236.04,1152.845l138.617-3.98Z" transform="translate(-20.725 -435.646)"/>
          <path id="Path_3900" data-name="Path 3900" class="cls-9" d="M610.994,78.213,354.708-81.253,347.241-54.99-35.485-257.455-62.366-130.136,365.064-21.231l4.95-9.144Z" transform="translate(90.143 372.313)"/>
          <path id="Path_3901" data-name="Path 3901" class="cls-15" d="M610.994,78.213,354.708-81.253,347.241-54.99-35.485-257.455-62.366-130.136,365.064-21.231l4.95-9.144Z" transform="translate(90.143 372.313)"/>
        </g>
      </g>
      <g id="Group_6467" data-name="Group 6467" class="cls-4" transform="translate(412.587 349.045)">
        <path id="Path_3902" data-name="Path 3902" class="cls-16" d="M379.015,875.769-29.574,1029.243l24.193,9.465Z" transform="translate(78.856 -466.418)"/>
        <path id="Path_3903" data-name="Path 3903" class="cls-6" d="M378.467,972.595,101.594,1099.474H210.91Z" transform="translate(30.122 -527.183)"/>
        <path id="Path_3904" data-name="Path 3904" class="cls-9" d="M94.236,404.426-58.089,373.708l6.272,23.372Z" transform="translate(89.45 -151.336)"/>
        <path id="Path_3905" data-name="Path 3905" class="cls-9" d="M1478.861,472.563l311.818-30.718v30.718Z" transform="translate(-481.581 -194.097)"/>
        <path id="Path_3906" data-name="Path 3906" class="cls-17" d="M1059.693,899.079l83.331,154.258h37.633Z" transform="translate(-325.845 -481.046)"/>
        <path id="Path_3907" data-name="Path 3907" class="cls-6" d="M1142.386,965.423l193.051,134.892h-92.269Z" transform="translate(-356.569 -522.682)"/>
        <path id="Path_3908" data-name="Path 3908" class="cls-6" d="M738.9-106.818l46.594,86.144-19.5-88.262Z" transform="translate(-206.66 151.56)"/>
        <path id="Path_3909" data-name="Path 3909" class="cls-16" d="M1408.662-183.939,1219.376-37.026,1440.7-177.261Z" transform="translate(-385.173 198.63)"/>
        <path id="Path_3910" data-name="Path 3910" class="cls-18" d="M1309.2,746.667l407.693,66.111v22.7Z" transform="translate(-418.545 -385.397)"/>
        <path id="Path_3911" data-name="Path 3911" class="cls-19" d="M-107.99-183.939l13.44,73.456L247.733-10.315Z" transform="translate(107.99 198.63)"/>
        <path id="Path_3912" data-name="Path 3912" class="cls-19" d="M1594.135-196.007C1590.551-194,1309.2-43.752,1309.2-43.752l443.535-110.184,7.168-69.45Z" transform="translate(-418.545 223.386)"/>
      </g>
      <g id="Group_6470" data-name="Group 6470" class="cls-4" transform="translate(408.846 321.088)">
        <g id="Group_6468" data-name="Group 6468" transform="translate(0 0)">
          <path id="Path_3913" data-name="Path 3913" class="cls-7" d="M628.859,33.227l-324.97-198.6L283.22-159.48l-2.834-17.4L79.625-298.455l-6.434,43.778L267.5-158.66l3.293,19.166,27.713-9.256Z" transform="translate(44.416 298.455)"/>
          <path id="Path_3914" data-name="Path 3914" class="cls-7" d="M-113.944,702.213l273.579-74.556,18.056,36.567,45.6-39.055,336.043-33.021-333.693,66.67L168.85,705.8l-18.3-42.721L-107.4,737.14Z" transform="translate(113.944 -260.467)"/>
          <path id="Path_3915" data-name="Path 3915" class="cls-7" d="M-25.974,165.837,293.61,251.489l12.782,18.138,27.756-6.923,257.867,61.9L337.746,270.016l-37.31,22.825-15.19-29.626L-18.831,191.33Z" transform="translate(81.26 7.076)"/>
        </g>
        <g id="Group_6469" data-name="Group 6469" transform="translate(673.275 174.402)">
          <path id="Path_3916" data-name="Path 3916" class="cls-7" d="M957.357,327.114l400.356-95.244,16.294,11.16,11.248-15.394,246.78-57.8-15.691,42.459-228.132,35.82-12.548,16.909L1354.487,248.8Z" transform="translate(-957.357 -169.835)"/>
          <path id="Path_3917" data-name="Path 3917" class="cls-7" d="M1528.659,879.56,1311.284,735.045,1276.4,764.068l-23.049-48.836L957.357,592.148l277.154,153.713,29.528,59.278,38.158-34.676,203.087,139.76Z" transform="translate(-957.357 -434.869)"/>
          <path id="Path_3918" data-name="Path 3918" class="cls-7" d="M1610.348,614.489l-339.44-8.256-20.859,13.345-22.372-14.066L957.357,592.148l263.356,19.17,23.379,31.473,28.784-23.36,318.212,16.789Z" transform="translate(-957.357 -434.869)"/>
        </g>
      </g>
    </g>
  </g>
</svg>
