<svg xmlns="http://www.w3.org/2000/svg" xmlns:xlink="http://www.w3.org/1999/xlink" width="1920" height="1080" viewBox="0 0 1920 1080"><defs><clipPath id="a"><rect width="1920" height="1080" fill="none"/></clipPath><radialGradient id="b" cx="0.222" cy="0.2" r="0.757" gradientTransform="matrix(0.702, -0.713, 0.701, 0.69, -0.074, 0.22)" gradientUnits="objectBoundingBox"><stop offset="0" stop-color="#00abff"/><stop offset="1" stop-color="#0707ff"/></radialGradient><linearGradient id="c" y1="0.5" x2="1" y2="0.5" gradientUnits="objectBoundingBox"><stop offset="0" stop-color="#fff" stop-opacity="0.2"/><stop offset="1" stop-color="#fff" stop-opacity="0"/></linearGradient><linearGradient id="e" x1="1.68" x2="2.68" xlink:href="#c"/><linearGradient id="f" x1="0.507" y1="0.077" x2="0.498" y2="1.335" xlink:href="#c"/><linearGradient id="g" x1="2.109" x2="3.27" xlink:href="#c"/><linearGradient id="h" x1="0.123" y1="0.651" x2="0.38" y2="0.485" gradientUnits="objectBoundingBox"><stop offset="0" stop-color="#fff" stop-opacity="0.502"/><stop offset="1" stop-color="#fff" stop-opacity="0"/></linearGradient><linearGradient id="l" x1="0.11" y1="0.249" x2="0.425" y2="0.456" xlink:href="#h"/></defs><g clip-path="url(#a)"><rect width="1920" height="1080" transform="translate(0.073)" fill="url(#b)"/><g opacity="0.1"><path d="M1867.39-293.391c-2.439,10.736-898.636,888.077-898.636,888.077L2086.9,370.706Z" fill="url(#c)"/><path d="M968.754,594.686,2063.732,63.964l-26.829,313.8Z" fill="#b200ff"/><path d="M960.073,600.466l469.512-312.58V359.97L1999.1,4.149v309.81l-612.2,127.3-3.659-26.073Z" fill="#fff"/><path d="M960.073,591.152l469.512,430.916V922.7L1999.1,1413.221v-427.1l-612.2-175.49-3.659,35.944Z" fill="#fff" opacity="0.35"/><path d="M1417.39,150.648l440.244-457.842,128.049,85.888Z" fill="url(#c)"/><path d="M1563.732,653.7l482.927-19.593,32.927,158.381Z" fill="#ffd500"/><path d="M1433.244,1099.218l370.732,243.86-296.341,6.135Z" fill="#ffd500"/><path d="M1295.439-164.559c2.439,10.736-336.627,743.822-336.627,743.822l-334.1-734.62Z" fill="url(#e)"/><path d="M625.646,1410.428c-2.439-10.736,336.627-743.822,336.627-743.822l334.105,734.62Z" fill="url(#f)"/><path d="M18.9-565.863c.617,11.138,934.158,1232.469,934.158,1232.469L-53.812,341.432Z" fill="url(#g)"/><path d="M946.911,613.636,601.273,275.605l-11.881,70.519L-19.594-197.516-50.96,187.228,623.634,407.847l5.484-26.966Z" fill="#fff" opacity="0.2"/><path d="M969.762,588.534,485.35,991.031l2.319-96.959L-99.165,1350.908-89.2,934.191,533.4,786.367l2.857,35.21Z" fill="#b200ff"/><path d="M969.762,588.534,485.35,991.031l2.319-96.959L-99.165,1350.908-89.2,934.191,533.4,786.367l2.857,35.21Z" fill="url(#h)"/><path d="M635.822,84.589,280.6-478.073,141.175-427.431Z" fill="url(#c)"/><path d="M502.593,606.464-96.584,429.293l-9.98,261.789Z" fill="url(#c)"/><path d="M616.287,1029.973,236.04,1359.9l220.56-10.687Z" fill="url(#c)"/><path d="M1009.071,643.851l-407.8-428.185L589.39,286.185-19.594-257.455-62.366,84.411,617.751,376.834l7.876-24.553Z" fill="#b200ff"/><path d="M1009.071,643.851l-407.8-428.185L589.39,286.185-19.594-257.455-62.366,84.411,617.751,376.834l7.876-24.553Z" fill="url(#l)"/></g><g opacity="0.1"><path d="M620.564,875.769l-650.139,412.1,38.5,25.414Z" fill="#ffec00"/><path d="M542.148,972.595,101.594,1313.279H275.535Z" fill="#00abff"/><path d="M184.287,456.189-58.089,373.708l9.98,62.758Z" fill="#ffd500"/><path d="M1478.861,524.326l496.158-82.481v82.481Z" fill="#ffd500"/><path d="M1059.693,899.079l132.594,414.2h59.881Z" fill="#00abff"/><path d="M1142.386,965.423l307.178,362.2H1302.748Z" fill="#ffd500"/><path d="M738.9-103.25l74.14,231.307L782.01-108.936Z" fill="#b200ff"/><path d="M1520.564-183.939,1219.376,210.538l352.158-376.546Z" fill="#4d2899"/><path d="M1309.2,746.667l648.713,177.514v60.965Z" fill="#ffd500"/><path d="M-107.99-183.939-86.6,13.3,458.03,282.261Z" fill="#b200ff"/><path d="M1762.584-149.87c-5.7,5.379-453.386,408.821-453.386,408.821L2014.941-36.906l11.406-186.48Z" fill="#00abff"/></g><g opacity="0.1"><path d="M957.357,592.148,440.272,58.884,407.384,74.708l-4.509-46.723L83.428-298.455,73.191-180.906,382.372,76.909l5.24,51.463,44.1-24.854Z" fill="#fff"/><path d="M-113.944,887.685,321.369,687.493,350.1,785.679l72.554-104.866,534.7-88.665L426.391,771.165l-90.36,126.142L306.91,782.6-103.525,981.468Z" fill="#fff" opacity="0.698"/><path d="M-25.974,165.837,482.541,395.823l20.338,48.7,44.165-18.589,410.313,166.21L552.769,445.57,493.4,506.859l-24.17-79.55L-14.608,234.29Z" fill="#fff"/><path d="M957.357,592.148,1594.4,336.407l25.927,29.967,17.9-41.335,392.67-155.2L2005.93,283.846l-363,96.181-19.967,45.4-33.7-43.56Z" fill="#fff"/><path d="M1866.4,1363.882l-345.882-388.04-55.506,77.931-36.675-131.131L957.357,592.148l441,412.737,46.984,159.168,60.716-93.108,323.148,375.27Z" fill="#fff"/><path d="M1996.381,652.136l-540.11-22.168-33.19,35.832-35.6-37.769L957.357,592.148,1376.4,643.623l37.2,84.509,45.8-62.725,506.332,45.08Z" fill="#fff"/></g></g></svg>