<svg xmlns="http://www.w3.org/2000/svg" id="bg_mobile" width="360" height="640" viewBox="0 0 360 640">
    <defs>
        <linearGradient id="linear-gradient" x2="1" y1=".465" y2=".5" gradientUnits="objectBoundingBox">
            <stop offset="0" stop-color="#0031ff"/>
            <stop offset="1" stop-color="#9429ff"/>
        </linearGradient>
        <linearGradient id="linear-gradient-2" x2="1" y1=".465" y2=".5" gradientUnits="objectBoundingBox">
            <stop offset="0" stop-color="#0031ff"/>
            <stop offset="1" stop-color="#0707ff"/>
        </linearGradient>
        <radialGradient id="radial-gradient" cx=".5" cy=".5" r=".5" gradientUnits="objectBoundingBox">
            <stop offset="0" stop-color="#0ff"/>
            <stop offset="1" stop-color="#0ff" stop-opacity="0"/>
        </radialGradient>
        <clipPath id="clip-path">
            <path id="mask" fill="url(#linear-gradient)" d="M0 0H360V640H0z"/>
        </clipPath>
        <style>
            .cls-5{fill:#fff}
        </style>
    </defs>
    <g id="Mask_Group_1" clip-path="url(#clip-path)">
        <path id="blue_bg" fill="url(#linear-gradient-2)" d="M0 0H360V640H0z"/>
        <g id="Group_92" opacity="0.03" transform="translate(-162.859 -127.496)">
            <g id="Group_69" transform="translate(83.45 127.496)">
                <path id="Path_105" d="M591 268.3a25.663 25.663 0 0 0-6.508-12.573c-6.21-6.849-14.774-10.144-21.525-12.823l-21.037-8.213c-13.986-5.45-28.083-10.351-41.554-15.935-13.378-5.547-26.472-11.905-36-20.016a35.852 35.852 0 0 1-10.076-13.55c-3.98-9.166-10.054-16.188-16.486-21.961-13-11.531-27.876-18.639-42.94-24.155a202.165 202.165 0 0 0-46.548-10.389c-31.512-3.288-63.872.175-93.884 11.333-29.918 11.143-57.141 30.688-76.1 56.24a184.851 184.851 0 0 0-23.374 40.882 233.8 233.8 0 0 0-12.866 44.5 305.205 305.205 0 0 0-1.774 90.574c2.1-29.93 5.739-59.592 14.245-87.609 8.106-28.02 21.132-54.307 39.543-75.564a157.6 157.6 0 0 1 68.656-45.877c26.346-9.007 54.974-11.743 82.894-8.87a187.905 187.905 0 0 1 40.9 8.689c13.047 4.385 25.641 10.473 35.381 18.493 4.839 3.992 8.745 8.56 10.911 13.1a58.949 58.949 0 0 0 17.332 21.423c13.878 10.718 28.864 16.001 43.31 21.085 14.546 4.885 28.97 9.011 43.368 12.962l21.456 6.156a91.208 91.208 0 0 1 9.886 3.3 29.769 29.769 0 0 1 7.879 4.64c4.4 3.627 6.065 8.9 4.847 15.332-1.22 6.332-4.56 12.82-8.438 18.886-8.012 12.127-18.3 23.145-29.228 33.354 12.6-8.169 24.459-17.658 34.582-29.345 5-5.882 9.669-12.4 12.225-20.607A28.435 28.435 0 0 0 591 268.3z" class="cls-5" transform="translate(-72.622 -127.496)"/>
                <path id="Path_106" d="M204.309 250.711a187.36 187.36 0 0 1 22.381-18.3 152.5 152.5 0 0 1 107.455-25 137.411 137.411 0 0 1 26.895 6.567c8.54 3.025 16.762 7.14 22.977 12.1 3.069 2.4 5.578 5.2 6.519 7.137a2.648 2.648 0 0 1 .3.643l.13.281.559 1.534a24.238 24.238 0 0 0 3.622 6.528 29.206 29.206 0 0 0 9.853 8.055c6.548 3.31 12.336 4.556 17.856 5.641 5.518 1.03 10.795 1.669 15.982 2.167l30.262 2.666a219.548 219.548 0 0 1 28.792 4.3 113.009 113.009 0 0 1 26.564 9.681 93.947 93.947 0 0 1 20.31 14.49 42.269 42.269 0 0 1-5.631 6.5 31.189 31.189 0 0 1-10.722 6.774 29.334 29.334 0 0 1-12.963 1.392 44.243 44.243 0 0 1-13.25-3.967 41.284 41.284 0 0 0 12.627 6.847 31 31 0 0 0 14.957 1.071 37.832 37.832 0 0 0 14.239-5.874 46.158 46.158 0 0 0 11.321-10.861l1.8-2.429-1.97-2.984c-6.387-9.671-14.207-16.843-23.161-23.2a118.81 118.81 0 0 0-29.064-14.745 236.6 236.6 0 0 0-30.929-7.555c-10.212-1.976-20.419-3.309-30.205-4.905-4.883-.814-9.666-1.639-14.1-2.671-.852-.2-1.679-.415-2.5-.636a34.429 34.429 0 0 0 2.252-17.733 47.435 47.435 0 0 0-4.924-15.1 65.4 65.4 0 0 0-8.084-12.349 62.172 62.172 0 0 1 1.843 13.966 37.425 37.425 0 0 1-1.71 12.786 19 19 0 0 1-3.233 5.868 51.211 51.211 0 0 0-11.184-12.938c-9.575-7.892-19.906-12.784-30.4-16.708a154.191 154.191 0 0 0-32.243-7.675 163.952 163.952 0 0 0-65.109 4.894 158.4 158.4 0 0 0-30.323 12.197 164.525 164.525 0 0 0-26.867 18.175 152.7 152.7 0 0 0-22.486 22.81 179.5 179.5 0 0 0-17.7 26.144 217.1 217.1 0 0 0-21.967 57.763c9.284-18.233 19.446-35.723 31.65-51.37a217.66 217.66 0 0 1 19.579-21.977z" class="cls-5" transform="translate(-69.574 -116.875)"/>
                <path id="Path_107" d="M423.593 372.428c-4.437.124-8.834-.631-11.157-2.445a6.481 6.481 0 0 1-2.261-3.207.236.236 0 0 1 .079-.019l-.054-.579-.118-1.453-.141-3.387-.192-14.521c-.131-9.826-.239-19.763-.856-29.737-1.356-19.943-3.369-40.169-10.587-60.594a99.2 99.2 0 0 0-6.962-15.287 71.192 71.192 0 0 0-4.991-7.49 46.38 46.38 0 0 0-5.95-6.159 58.767 58.767 0 0 0-14.881-8.24l-15.051-6.3c-20.064-7.824-41.807-7.841-61.589-3.34-19.916 4.533-38.211 13.46-54.771 24.368-16.633 10.9-31.4 24.228-44.752 38.628a370.9 370.9 0 0 0-36.281 46.245 326.628 326.628 0 0 1 37.853-44.711 248.328 248.328 0 0 1 22.105-19.071 204.4 204.4 0 0 1 24.119-16.16 148.606 148.606 0 0 1 53.6-19.18c17.015-2.424 34.47-.967 49.6 5.363-.657 0-1.319-.037-1.975-.038-4.557.221-9.1.254-13.62.651a194.371 194.371 0 0 0-52.718 11.339c-16.771 6.178-32.841 14.163-46.972 24.718-7.4 4.774-13.769 10.9-20.367 16.572-3.414 2.708-6.147 6.181-9.182 9.281l-8.864 9.505 9.961-8.325c3.376-2.684 6.431-5.724 10.133-7.973 7.174-4.759 14.015-9.887 21.738-13.6 14.792-8.431 30.937-14.026 47.178-17.811a178.374 178.374 0 0 1 49.461-4.375c4.115.149 8.217.648 12.3.941 4.069.532 8.132 1.069 12.146 1.764 4 .777 8 1.524 11.879 2.56 2.485.6 5.092 1.35 7.452 2.108.47.609.963 1.142 1.418 1.793a75.018 75.018 0 0 1 6.077 10.998c7.083 16.136 11.259 34.99 14.437 53.854q2.382 14.222 4.317 28.771c.664 4.862 1.277 9.723 2.159 14.755l.745 3.9c.162.7.275 1.319.519 2.162l.348 1.21c.205.58.434 1.156.684 1.714a17.676 17.676 0 0 0 7.48 7.462c6.287 3.092 12.253 2.495 17.425 1.565a75.7 75.7 0 0 0 14.726-4.648 146.974 146.974 0 0 0 25.925-14.628 179.528 179.528 0 0 1-27.73 9.087 68.689 68.689 0 0 1-13.842 1.964z" class="cls-5" transform="translate(-69.574 -111.727)"/>
                <path id="Path_108" d="M200.288 331.8c11.773-9.014 26.136-16.052 40.909-22.208 29.8-12.247 61.8-20.913 94.284-29.392a310.213 310.213 0 0 0-100.786 10.6 198.628 198.628 0 0 0-24.651 8.682 134.936 134.936 0 0 0-23.756 12.818 87.534 87.534 0 0 0-21.058 19.509 61.275 61.275 0 0 0-11.811 28.591 39.545 39.545 0 0 0-.447 7.852l.034 3.919.4 3.6a94 94 0 0 0 2.625 14.1 107.223 107.223 0 0 0 10.967 25.675c9.248 15.859 21.434 28.99 34.592 40.3a256.847 256.847 0 0 0 89.122 48.656 628.515 628.515 0 0 1-49.87-38.647c.483-.375 1.012-.718 1.486-1.1a138.287 138.287 0 0 0 12.247-11.037 149.028 149.028 0 0 0 19.675-24.951 142.344 142.344 0 0 1-26.889 14.263 121.465 121.465 0 0 1-13.939 4.556c-2.317.624-4.647 1.115-6.929 1.541-1 .168-2.1.351-3.147.493q-4.067-4.04-7.974-8.195c-1.505-1.635-2.931-3.317-4.392-4.979.253-.1.52-.182.771-.283a78.865 78.865 0 0 0 18.971-11.463 103.018 103.018 0 0 0 14.835-14.829c2.15-2.674 4.128-5.463 6.146-8.15l5.426-8.491-7.753 6.263c-2.734 1.88-5.375 3.811-8.107 5.565-5.583 3.335-11.16 6.476-17.035 8.5a62.484 62.484 0 0 1-17.344 3.89 42.673 42.673 0 0 1-8.175-.229 22.215 22.215 0 0 1-3.082-.58 125.271 125.271 0 0 1-7.553-12.685q-2.02-4-3.723-8.077c3.2-.568 6.374-1.221 9.5-1.979a117.1 117.1 0 0 0 25.161-9.63 120.465 120.465 0 0 0 11.4-6.784c3.491-2.734 7.109-5.145 10.2-8.244 6.568-5.671 11.767-12.6 16.509-19.456-6.393 5.481-12.885 10.6-20.225 14.187-3.478 2.057-7.364 3.364-10.983 4.952a109.08 109.08 0 0 1-11.439 3.277 101.041 101.041 0 0 1-23.18 2.528c-3.863-.086-7.685-.265-11.444-.728-.432-.054-.845-.134-1.274-.191a43.527 43.527 0 0 1-.012-10.154c1.235-11.934 9.809-22.967 21.718-31.855z" class="cls-5" transform="translate(-69.598 -97.175)"/>
                <path id="Path_109" d="M164.141 454.536a181.767 181.767 0 0 1-15.9-32.974c-8.545-22.99-12.461-47.886-13.644-73.312-1.137-25.494.3-51.5 3.559-78.157-13.371 23.538-20.695 50.271-23.5 77.595-2.6 27.323-.17 55.938 9.771 82.6a170.959 170.959 0 0 0 11.114 23.826 158.958 158.958 0 0 1-24.1-60.975c-5.9-33.077-3.21-68.032 2.726-102.471 6.077-34.57 15.711-68.891 27.225-103.234-21.015 29.711-36.191 63.4-46.591 98.746a294.122 294.122 0 0 0-10.371 54.7 213.7 213.7 0 0 0 2.034 56.664 164.835 164.835 0 0 0 19.63 54.269c9.886 16.675 22.766 31.8 38.291 43.017 3.575 3.2 7.852 5.4 11.8 8.016 4.016 2.523 7.94 5.164 12.3 6.991l12.7 6.011c4.351 1.677 8.74 3.213 13.106 4.754l6.571 2.2c2.2.692 4.479 1.124 6.706 1.695 4.483 1.06 8.924 2.185 13.4 3.115 8.98 1.714 18.109 2.576 27.086 3.51-22.9-14.2-43.961-29.319-61.283-47.361a202.605 202.605 0 0 1-22.63-29.225z" class="cls-5" transform="translate(-83.45 -115.552)"/>
            </g>
            <path id="Path_110" d="M500.594 341.776a86.15 86.15 0 0 0-7.815-13.647 41.9 41.9 0 0 0-13.308-11.258 56.267 56.267 0 0 0-15.673-5.441 132.668 132.668 0 0 0-15.354-2.238c-10.026-.688-19.617-1.034-28.912-2.021-9.209-.962-18.739-2.333-25.368-6.137-6.923-3.577-10.266-11.423-12.247-20.894-2.128-9.172-3.884-20.243-10.883-27.651 3.958 9.232 3.25 18.578 3.443 28.59A54.036 54.036 0 0 0 377 296.806a28.992 28.992 0 0 0 10.388 14.059 20.024 20.024 0 0 0 3.621 2.419c1.246.69 2.495 1.5 3.769 2.07a72.383 72.383 0 0 0 7.725 2.786 124.242 124.242 0 0 0 15.125 3.4c10.088 1.59 20.057 1.99 29.5 2.938 9.371.766 18.574 1.84 25.751 5.352 3.785 1.491 6.7 4.012 9.476 6.806 2.345 2.791 5.21 7.155 7.846 11.108l15.923 24.541c5.644 7.975 11.248 16.78 19.627 22.417-5.833-7.966-9.167-17-13-26-3.82-8.967-7.64-18.084-12.157-26.926z" class="cls-5" transform="translate(57.309 24.909)"/>
        </g>
        <path id="round_grad" fill="url(#radial-gradient)" d="M-.54 0H624.2v426.2l-625-28.65z" transform="translate(-131.7 -176.116)"/>
    </g>
</svg>
