<svg xmlns="http://www.w3.org/2000/svg" id="bg" width="1920" height="1008" viewBox="0 0 1920 1008">
    <defs>
        <linearGradient id="linear-gradient" x2="1" y1=".465" y2=".5" gradientUnits="objectBoundingBox">
            <stop offset="0" stop-color="#0031ff"/>
            <stop offset="1" stop-color="#9429ff"/>
        </linearGradient>
        <linearGradient id="linear-gradient-2" x2="1" y1=".465" y2=".5" gradientUnits="objectBoundingBox">
            <stop offset="0" stop-color="#0031ff"/>
            <stop offset="1" stop-color="#0707ff"/>
        </linearGradient>
        <radialGradient id="radial-gradient" cx=".5" cy=".5" r=".5" gradientUnits="objectBoundingBox">
            <stop offset="0" stop-color="#0ff"/>
            <stop offset="1" stop-color="#0ff" stop-opacity="0"/>
        </radialGradient>
        <clipPath id="clip-path">
            <path id="mask" fill="url(#linear-gradient)" d="M0 0H1920V1008H0z"/>
        </clipPath>
        <style>
            .cls-5{fill:#fff}
        </style>
    </defs>
    <g id="Mask_Group_1" clip-path="url(#clip-path)">
        <path id="blue_bg" fill="url(#linear-gradient-2)" d="M0 0H1920V1008H0z"/>
        <g id="Group_92" opacity="0.03" transform="translate(71.533 -303.613)">
            <g id="Group_69" transform="translate(83.45 127.496)">
                <path id="Path_105" d="M1544.778 564.6a79.67 79.67 0 0 0-20.205-39.033c-19.278-21.263-45.865-31.49-66.822-39.807l-65.307-25.5c-43.419-16.918-87.184-32.134-129-49.469-41.531-17.219-82.18-36.959-111.76-62.139-14.546-12.83-25.109-26.5-31.3-42.056-12.357-28.456-31.211-50.254-51.181-68.177-40.355-35.8-86.54-57.865-133.306-74.987-46.986-16.776-95.561-27.011-144.5-32.253-97.828-10.209-198.289.544-291.459 35.183-92.88 34.591-177.391 95.271-236.261 174.595-29.889 39.189-53.9 82.24-72.563 126.917C172.9 512.8 160 559.248 151.168 606.014 134.686 699.9 134.131 794.7 145.662 887.2c6.534-92.917 17.815-185 44.223-271.976 25.164-86.986 65.6-168.593 122.758-234.585a489.26 489.26 0 0 1 213.14-142.424c81.789-27.961 170.663-36.457 257.341-27.536a583.346 583.346 0 0 1 126.988 26.971c40.5 13.612 79.6 32.514 109.839 57.41 15.023 12.394 27.149 26.576 33.873 40.66 12.342 27.2 32.629 49.86 53.806 66.506 43.08 33.3 89.6 49.7 134.441 65.478 45.157 15.164 89.935 27.975 134.635 40.239l66.61 19.111c11.4 3.444 21.605 6.288 30.69 10.257 9.185 3.984 17.845 8.544 24.461 14.4 13.645 11.259 18.828 27.614 15.049 47.6-3.786 19.658-14.155 39.8-26.2 58.631-24.874 37.648-56.8 71.852-90.736 103.547 39.107-25.362 75.933-54.819 107.359-91.1 15.525-18.262 30.016-38.5 37.953-63.974 3.776-12.695 5.715-27.092 2.886-41.815z" class="cls-5" transform="translate(64.515 -127.496)"/>
                <path id="Path_106" d="M312.119 397.842a581.656 581.656 0 0 1 69.48-56.818c97.962-67.31 218.568-94.12 333.59-77.627a426.591 426.591 0 0 1 83.494 20.388c26.512 9.39 52.038 22.167 71.331 37.551 9.527 7.446 17.316 16.143 20.239 22.156a8.216 8.216 0 0 1 .938 2l.4.871 1.735 4.762a75.249 75.249 0 0 0 11.244 20.265c9.315 12.13 20.526 19.781 30.582 25.042 20.328 10.276 38.3 14.144 55.433 17.513 17.13 3.2 33.511 5.183 49.614 6.728l93.956 8.276c30.567 2.949 61.353 6.743 89.384 13.355 28.452 6.735 56.372 16.356 82.467 30.053 22.536 12.216 45.165 27.625 63.051 44.982a131.221 131.221 0 0 1-17.48 20.187 96.822 96.822 0 0 1-33.285 21.028 91.067 91.067 0 0 1-40.243 4.323c-13.943-1.631-27.834-6.18-41.151-12.327a128.163 128.163 0 0 0 39.2 21.255 96.248 96.248 0 0 0 46.435 3.325 117.447 117.447 0 0 0 44.2-18.236 143.3 143.3 0 0 0 35.146-33.716l5.6-7.539-6.117-9.263c-19.829-30.023-44.1-52.287-71.9-72.023a368.841 368.841 0 0 0-90.229-45.776c-32.607-10.8-64.2-17.413-96.019-23.456-31.7-6.136-63.39-10.272-93.77-15.227-15.161-2.528-30.008-5.09-43.758-8.291-2.643-.607-5.212-1.288-7.763-1.973a106.884 106.884 0 0 0 6.992-55.05c-2.264-17.517-8.332-32.812-15.287-46.863a203.045 203.045 0 0 0-25.1-38.337 193.028 193.028 0 0 1 5.722 43.356c.156 14.137-1.124 28.024-5.309 39.692a58.982 58.982 0 0 1-10.037 18.217c-10.078-17.115-22.365-29.494-34.722-40.165-29.725-24.5-61.8-39.688-94.373-51.87-32.681-11.877-66.282-19.282-100.1-23.828A508.982 508.982 0 0 0 523.6 199.971a491.73 491.73 0 0 0-94.146 37.853 510.757 510.757 0 0 0-83.409 56.424 474.037 474.037 0 0 0-69.808 70.813c-20.589 25.727-39.405 52.6-54.96 81.164a673.979 673.979 0 0 0-68.2 179.323c28.821-56.6 60.37-110.9 98.256-159.475 19.173-24.063 38.909-47.329 60.786-68.231z" class="cls-5" transform="translate(106.157 17.647)"/>
                <path id="Path_107" d="M992.877 721.338c-13.776.384-27.424-1.958-34.636-7.591a20.119 20.119 0 0 1-7.018-9.955.733.733 0 0 1 .246-.06l-.167-1.8-.365-4.512-.439-10.514-.6-45.079c-.406-30.5-.741-61.353-2.658-92.318-4.211-61.912-10.458-124.7-32.867-188.11a307.957 307.957 0 0 0-21.613-47.458 221.03 221.03 0 0 0-15.5-23.251 144 144 0 0 0-18.47-19.122c-13.98-11-30-19.211-46.2-25.581l-46.725-19.554c-62.288-24.29-129.787-24.342-191.2-10.369-61.829 14.073-118.625 41.784-170.034 75.65-51.636 33.824-97.474 75.214-138.931 119.917-41.773 44.539-78.587 93.238-112.631 143.567A1014 1014 0 0 1 270.588 416.4a770.919 770.919 0 0 1 68.624-59.2 634.556 634.556 0 0 1 74.875-50.169c51.636-30.314 108.614-51.222 166.389-59.544 52.823-7.524 107.009-3 153.991 16.65-2.04-.011-4.1-.115-6.132-.119-14.148.685-28.247.789-42.283 2.022-56.144 4.282-111.492 15.864-163.66 35.2-52.064 19.178-101.954 43.97-145.823 76.737-22.975 14.823-42.745 33.823-63.229 51.447-10.6 8.407-19.085 19.189-28.5 28.813l-27.518 29.509 30.921-25.846c10.481-8.332 19.963-17.77 31.456-24.751 22.272-14.773 43.508-30.693 67.485-42.205 45.921-26.173 96.041-43.542 146.463-55.292A553.754 553.754 0 0 1 687.2 326.071c12.774.462 25.511 2.01 38.188 2.923 12.633 1.653 25.246 3.317 37.708 5.477 12.428 2.413 24.822 4.732 36.877 7.949 7.714 1.862 15.808 4.192 23.135 6.545 1.459 1.891 2.99 3.544 4.4 5.566a232.908 232.908 0 0 1 18.858 34.111c21.989 50.094 34.952 108.625 44.819 167.186q7.394 44.152 13.4 89.317c2.063 15.094 3.965 30.183 6.7 45.805l2.312 12.111c.5 2.186.853 4.1 1.612 6.713l1.08 3.757c.637 1.8 1.348 3.589 2.122 5.32a54.875 54.875 0 0 0 23.221 23.165c19.516 9.6 38.039 7.744 54.1 4.859 16.289-3.127 31.248-8.451 45.716-14.431a456.282 456.282 0 0 0 80.482-45.411c-28.221 11.624-57.1 21.508-86.085 28.21-14.438 3.332-29.021 5.812-42.968 6.095z" class="cls-5" transform="translate(106.157 87.996)"/>
                <path id="Path_108" d="M299.879 441.539c36.55-27.983 81.138-49.834 127-68.944 92.508-38.02 191.863-64.924 292.7-91.246a963.042 963.042 0 0 0-312.882 32.923 616.645 616.645 0 0 0-76.528 26.952A418.9 418.9 0 0 0 256.419 381c-23.672 16.125-46.487 35.507-65.374 60.564-18.72 24.919-32.533 56.126-36.669 88.766-1.586 8.15-1.43 16.259-1.389 24.375l.1 12.167 1.232 11.188c1.381 14.922 4.572 29.465 8.15 43.787 7.74 28.56 19.8 55.135 34.048 79.708 28.709 49.234 66.539 90 107.389 125.115a797.371 797.371 0 0 0 276.675 151.05c-53.981-38.254-106.364-77.715-154.813-119.976 1.5-1.165 3.142-2.23 4.613-3.422a429.314 429.314 0 0 0 38.02-34.264 462.647 462.647 0 0 0 61.082-77.458 441.9 441.9 0 0 1-83.476 44.279 377.079 377.079 0 0 1-43.274 14.144c-7.193 1.936-14.427 3.462-21.512 4.784-3.1.521-6.527 1.091-9.769 1.53Q358.825 794.794 346.7 781.9c-4.672-5.075-9.1-10.3-13.634-15.458.786-.309 1.616-.566 2.394-.879 22.1-9.181 41.531-21.709 58.9-35.6 17.618-13.667 32.246-29.911 46.055-46.036 6.676-8.3 12.815-16.959 19.081-25.3l16.843-26.36-24.07 19.433c-8.489 5.838-16.687 11.832-25.168 17.275-17.331 10.354-34.647 20.1-52.883 26.393-18.016 6.571-36.259 10.991-53.844 12.078-8.764.413-17.365.48-25.38-.711a68.933 68.933 0 0 1-9.568-1.8 388.892 388.892 0 0 1-23.448-39.379q-6.272-12.426-11.557-25.075c9.937-1.765 19.788-3.79 29.483-6.143a363.528 363.528 0 0 0 78.111-29.9c12.431-5.979 23.9-13.872 35.4-21.062 10.838-8.489 22.07-15.972 31.669-25.593 20.391-17.607 36.531-39.119 51.252-60.4-19.848 17.014-40 32.916-62.786 44.044-10.8 6.385-22.86 10.443-34.1 15.373-11.951 3.652-23.4 7.867-35.518 10.168a313.679 313.679 0 0 1-71.96 7.848c-11.992-.268-23.858-.823-35.526-2.26-1.34-.167-2.625-.417-3.954-.592-1.162-11.266-1.333-22.093-.037-31.523 3.837-37.058 30.453-71.31 67.424-98.902z" class="cls-5" transform="translate(105.842 286.844)"/>
                <path id="Path_109" d="M333.951 1016.64a564.287 564.287 0 0 1-49.368-102.367C258.056 842.9 245.9 765.613 242.225 686.68c-3.53-79.146.916-159.866 11.05-242.635-41.509 73.073-64.246 156.065-72.954 240.888-8.079 84.823-.529 173.657 30.332 256.429a530.725 530.725 0 0 0 34.5 73.967c-37.931-56.658-62.805-121.287-74.8-189.294-18.314-102.687-9.967-211.2 8.463-318.117 18.865-107.322 48.773-213.87 84.518-320.485-65.24 92.236-112.352 196.814-144.639 306.553A913.087 913.087 0 0 0 86.5 663.794c-5.18 57.92-4.189 117.222 6.31 175.906 10.525 58.542 30.343 116.388 60.94 168.474 30.69 51.766 70.676 98.726 118.871 133.544 11.1 9.937 24.375 16.765 36.632 24.885 12.469 7.833 24.651 16.032 38.192 21.7l39.424 18.66c13.507 5.205 27.134 9.974 40.686 14.759l20.4 6.843c6.821 2.148 13.906 3.489 20.82 5.261 13.917 3.291 27.7 6.783 41.6 9.669 27.879 5.32 56.219 8 84.086 10.9-71.081-44.078-136.474-91.019-190.251-147.029a628.978 628.978 0 0 1-70.259-90.726z" class="cls-5" transform="translate(-83.45 35.72)"/>
            </g>
            <path id="Path_110" d="M773.25 529.672c-7-13.98-13.009-26.94-24.26-42.365-11.314-13.921-25.269-26.963-41.315-34.949-15.764-8.615-32.555-13.545-48.657-16.892-16.292-3.66-32.037-5.283-47.667-6.947-31.125-2.137-60.9-3.209-89.757-6.273C493 419.26 463.421 415 442.839 403.195c-21.493-11.106-31.87-35.463-38.02-64.864-6.6-28.474-12.059-62.842-33.787-85.84 12.286 28.66 10.09 57.675 10.689 88.755.622 15.544 2.081 32.011 7.848 48.817a90 90 0 0 0 32.25 43.646 62.162 62.162 0 0 0 11.24 7.51c3.868 2.141 7.744 4.669 11.7 6.426 7.852 3 16.3 6.735 23.98 8.649a385.717 385.717 0 0 0 46.956 10.57c31.319 4.937 62.265 6.177 91.592 9.121 29.092 2.379 57.663 5.711 79.942 16.616 11.75 4.628 20.8 12.454 29.416 21.129 7.279 8.664 16.173 22.212 24.356 34.483l49.435 76.187c17.521 24.759 34.919 52.094 60.932 69.592-18.109-24.729-28.459-52.782-40.344-80.724-11.891-27.842-23.749-56.145-37.774-83.596z" class="cls-5" transform="translate(783.115 340.373)"/>
        </g>
        <path id="round_grad" fill="url(#radial-gradient)" d="M-.207 0H1424v971.6L-.8 906.287z" transform="translate(248 -280)"/>
    </g>
</svg>
