<svg xmlns="http://www.w3.org/2000/svg" xmlns:xlink="http://www.w3.org/1999/xlink" width="112.217" height="129.579" viewBox="0 0 112.217 129.579">
    <defs>
        <linearGradient id="linear-gradient" x1=".043" x2=".998" y1=".256" y2=".766" gradientUnits="objectBoundingBox">
            <stop offset="0" stop-color="#f7c48d"/>
            <stop offset=".194" stop-color="#fff1a5"/>
            <stop offset=".67" stop-color="#fff3db"/>
            <stop offset="1" stop-color="#f7c681"/>
        </linearGradient>
        <linearGradient id="linear-gradient-2" x1=".086" x2=".996" y1=".156" y2=".893" xlink:href="#linear-gradient"/>
        <linearGradient id="linear-gradient-3" x1=".028" x2="1.063" y1="-.06" y2="1.124" xlink:href="#linear-gradient"/>
        <linearGradient id="linear-gradient-4" x1="-.277" x2="1.457" y1=".175" y2="1.04" xlink:href="#linear-gradient"/>
        <linearGradient id="linear-gradient-5" x1="-8.04" x2="28.427" y1="-16.901" y2="57.733" xlink:href="#linear-gradient"/>
        <linearGradient id="linear-gradient-6" x1="-.7" x2=".827" y1="-.332" y2=".725" xlink:href="#linear-gradient"/>
        <linearGradient id="linear-gradient-7" x1=".066" x2="1.277" y1=".258" y2=".925" xlink:href="#linear-gradient"/>
        <linearGradient id="linear-gradient-8" x1="-.052" x2="1.285" y1=".031" y2="1.171" xlink:href="#linear-gradient"/>
        <linearGradient id="linear-gradient-9" x1="-.094" x2="1.243" y1="-.142" y2="1.313" xlink:href="#linear-gradient"/>
        <linearGradient id="linear-gradient-10" x1="-.307" x2="1.345" y1="-.612" y2="1.665" xlink:href="#linear-gradient"/>
        <linearGradient id="linear-gradient-11" x1="-.349" x2=".94" y1="-.157" y2=".569" xlink:href="#linear-gradient"/>
        <linearGradient id="linear-gradient-12" x1="-.026" x2="1.404" y1=".319" y2=".794" xlink:href="#linear-gradient"/>
        <style>
            .cls-1{fill:#fff}
        </style>
    </defs>
    <g id="viper_icon" transform="translate(-215.41 5.8)">
        <path id="Path_48" d="M271.519-5.8L215.41 26.6v64.785l56.109 32.394 56.107-32.394V26.6zm52.1 94.871l-52.1 30.081-52.1-30.081V28.908l52.1-30.081 52.1 30.081z" class="cls-1"/>
        <path id="Path_49" fill="url(#linear-gradient)" d="M279.516 5.75L225.41 36.987v62.475l54.106 31.238 54.1-31.237V36.987zm52.1 92.556l-52.1 30.081-52.1-30.081V38.144l52.1-30.081 52.1 30.081z" transform="translate(-7.996 -9.236)"/>
        <path id="Path_50" fill="none" d="M287.507 17.294l-52.1 30.081v60.162l52.1 30.081 52.1-30.081V47.375z" transform="translate(-15.989 -18.467)"/>
        <path id="Path_51" fill="#fff0a4" d="M287.507 17.294l-52.1 30.081v60.162l52.1 30.081z" opacity="0.17" transform="translate(-15.989 -18.467)"/>
        <path id="Path_52" fill="#f7c681" d="M495.435 17.294v120.324l52.1-30.081V47.375z" opacity="0.41" transform="translate(-223.917 -18.467)"/>
        <g id="Group_68" transform="translate(229.495 22.37)">
            <g id="Group_62">
                <path id="Path_53" d="M340.475 177.927a52.968 52.968 0 0 1 .311-15.727v-.025a41.028 41.028 0 0 1 2.263-7.816 32.855 32.855 0 0 1 4.161-7.282 30.2 30.2 0 0 1 13.615-10.07 36.015 36.015 0 0 1 12.587-2.218c.377 0 .759.006 1.136.017.938.027 1.9.091 2.871.192a35.9 35.9 0 0 1 8.243 1.844 23.345 23.345 0 0 1 7.831 4.423 12.574 12.574 0 0 1 3.261 4.369l.025.059a4.041 4.041 0 0 0 1.136 1.49 21.694 21.694 0 0 0 5.47 3.007c1.34.555 2.7 1.063 4.146 1.6.9.336 1.833.684 2.756 1.043l3.595 1.4a10.789 10.789 0 0 1 4.257 2.616 6.258 6.258 0 0 1 1.588 3.094 6.717 6.717 0 0 1-.2 3.189l-.008.027a11.837 11.837 0 0 1-2.431 4.145 28.728 28.728 0 0 1-6.212 5.286l-2.458-3.145a29.763 29.763 0 0 0 4.57-5.2 7.439 7.439 0 0 0 1.121-2.441c.089-.469-.033-.57-.115-.637l-.031-.026-.03-.027a3.041 3.041 0 0 0-.778-.431 10.618 10.618 0 0 0-1.147-.387l-.272-.082-3.562-1.021c-2.182-.6-4.759-1.329-7.341-2.2l-.028-.009a26.329 26.329 0 0 1-7.8-3.83 11.907 11.907 0 0 1-3.486-4.314 4.949 4.949 0 0 0-1.283-1.493 16.9 16.9 0 0 0-5.276-2.735 29.342 29.342 0 0 0-6.385-1.357c-.715-.074-1.437-.124-2.16-.15-.4-.014-.8-.022-1.19-.022a29.8 29.8 0 0 0-9.659 1.556 24.323 24.323 0 0 0-10.609 7.087 31.133 31.133 0 0 0-6.192 11.864l-.008.026a65.237 65.237 0 0 0-2.3 14.195z" class="cls-1" transform="translate(-329.15 -134.79)"/>
                <path id="Path_54" d="M425.754 168.315a4.272 4.272 0 0 0-1.088-2.1 9.131 9.131 0 0 0-3.595-2.142l-3.514-1.373c-2.338-.91-4.693-1.729-6.943-2.661a23.092 23.092 0 0 1-6.015-3.344 5.989 5.989 0 0 1-1.685-2.264 10.623 10.623 0 0 0-2.753-3.669 21.794 21.794 0 0 0-7.175-4.035 33.769 33.769 0 0 0-7.776-1.737c-.9-.094-1.813-.156-2.723-.182a34.333 34.333 0 0 0-12.964 2.076 28.116 28.116 0 0 0-12.713 9.4 30.81 30.81 0 0 0-3.905 6.831 38.869 38.869 0 0 0-2.15 7.434 50.947 50.947 0 0 0-.3 15.132 66.29 66.29 0 0 1 2.38-14.637 33.4 33.4 0 0 1 6.606-12.623 26.31 26.31 0 0 1 11.471-7.666 32.224 32.224 0 0 1 11.571-1.641q1.142.042 2.278.158a31.426 31.426 0 0 1 6.833 1.453 18.84 18.84 0 0 1 5.913 3.09 6.789 6.789 0 0 1 1.824 2.185 9.85 9.85 0 0 0 2.9 3.579 24.389 24.389 0 0 0 7.235 3.524c2.43.816 4.839 1.5 7.245 2.166l3.585 1.028a15.273 15.273 0 0 1 1.651.553 4.91 4.91 0 0 1 1.316.775 2.507 2.507 0 0 1 .81 2.561 9.457 9.457 0 0 1-1.409 3.156 31.793 31.793 0 0 1-4.883 5.572 26.852 26.852 0 0 0 5.777-4.9 9.812 9.812 0 0 0 2.044-3.442 4.758 4.758 0 0 0 .152-2.257z" class="cls-1" transform="translate(-337.143 -142.786)"/>
                <path id="Path_55" d="M402.845 247.135a5.817 5.817 0 0 1-2.593-.592l-.022-.011a4.942 4.942 0 0 1-2.119-2.1l-.028-.055-.025-.056c-.062-.139-.121-.285-.174-.435l-.02-.057-.072-.251c-.052-.177-.082-.316-.1-.418l-.027-.125-.133-.69c-.123-.7-.215-1.383-.3-2.039l-.068-.495c-.212-1.6-.451-3.194-.713-4.749a37.487 37.487 0 0 0-2.262-8.508 11.629 11.629 0 0 0-.652-1.234c-.17-.048-.334-.091-.487-.128l-.043-.011c-.538-.143-1.109-.254-1.713-.371l-.117-.023c-.62-.1-1.258-.19-1.876-.272-.223-.017-.446-.037-.669-.057s-.452-.041-.68-.057h-.025c-.17-.014-.35-.025-.55-.032h-.023c-.475-.023-.956-.035-1.429-.035a27.39 27.39 0 0 0-6.279.715 27.02 27.02 0 0 0-7.351 2.766l-.061.035-.064.03a20.055 20.055 0 0 0-2.542 1.561c-.282.192-.564.384-.849.573l-.032.021-.033.02a7.625 7.625 0 0 0-.911.708c-.184.157-.367.314-.556.465l-1.648 1.376-1.456-1.538a51.524 51.524 0 0 0-3.8 4.78l-3.3-2.272a63.909 63.909 0 0 1 6.261-7.974 42.335 42.335 0 0 1 7.839-6.759 30.106 30.106 0 0 1 9.8-4.349 21.922 21.922 0 0 1 4.846-.557 19.4 19.4 0 0 1 2.565.169 17.463 17.463 0 0 1 4.052 1.035l2.541 1.062a11.682 11.682 0 0 1 2.97 1.657l.029.023.028.024a9.716 9.716 0 0 1 1.249 1.289l.042.053a13.9 13.9 0 0 1 .973 1.458 18.439 18.439 0 0 1 1.314 2.879 39.406 39.406 0 0 1 1.885 10.672c.1 1.65.125 3.277.146 4.851l.033 2.529h.24a9.374 9.374 0 0 0 1.9-.276 27.77 27.77 0 0 0 4.318-1.419l1.913 3.493a26.581 26.581 0 0 1-4.687 2.643l-.032.013a14.714 14.714 0 0 1-2.844.891h-.022a8.735 8.735 0 0 1-1.557.154z" class="cls-1" transform="translate(-342.745 -198.071)"/>
                <path id="Path_56" d="M410.517 251.627a3.126 3.126 0 0 1-1.863-.407 1.085 1.085 0 0 1-.379-.537h.014l-.01-.1-.02-.242-.022-.565-.032-2.426c-.022-1.641-.04-3.3-.144-4.969a37.165 37.165 0 0 0-1.769-10.123 16.42 16.42 0 0 0-1.162-2.555 11.993 11.993 0 0 0-.834-1.25 7.809 7.809 0 0 0-.994-1.03 9.856 9.856 0 0 0-2.487-1.377l-2.515-1.052a15.428 15.428 0 0 0-3.591-.916 19 19 0 0 0-6.7.357 28.063 28.063 0 0 0-9.151 4.071 40.709 40.709 0 0 0-7.476 6.454 62.015 62.015 0 0 0-6.063 7.726 54.6 54.6 0 0 1 6.326-7.47 41.265 41.265 0 0 1 3.693-3.186 34.044 34.044 0 0 1 4.029-2.7 24.818 24.818 0 0 1 8.954-3.206 16.775 16.775 0 0 1 6.388.269 13.177 13.177 0 0 1 1.9.627c-.11 0-.22-.006-.331-.006-.523.026-1.046.036-1.569.062-.236.01-.471.026-.705.046a32.581 32.581 0 0 0-8.808 1.9 30.947 30.947 0 0 0-7.848 4.13 31.908 31.908 0 0 0-3.4 2.769 17.247 17.247 0 0 0-1.535 1.551l-1.481 1.587 1.665-1.391a16.954 16.954 0 0 1 1.693-1.332 31.114 31.114 0 0 1 3.631-2.27 29.284 29.284 0 0 1 7.883-2.975 29.742 29.742 0 0 1 8.265-.731c.214.008.429.02.643.038.473.034.942.084 1.411.118.681.09 1.358.18 2.03.295.669.13 1.336.256 1.986.429.415.1.85.226 1.244.353.078.1.16.19.236.3a12.613 12.613 0 0 1 1.016 1.837 38.819 38.819 0 0 1 2.41 9q.4 2.377.721 4.807c.112.811.214 1.625.361 2.465l.126.653c.026.116.044.22.086.361l.058.2c.034.1.072.192.114.287a2.953 2.953 0 0 0 1.25 1.246 4.46 4.46 0 0 0 2.911.26 12.706 12.706 0 0 0 2.459-.775 24.441 24.441 0 0 0 4.332-2.445 30.009 30.009 0 0 1-4.633 1.519 11.457 11.457 0 0 1-2.313.319z" class="cls-1" transform="translate(-349.367 -206.067)"/>
                <path id="Path_57" d="M582.946 257.036a13.861 13.861 0 0 1-3.491-3.815l-.329-.468-2.676-4.124-.1-.15c-.346-.519-.735-1.1-1.021-1.457a2.615 2.615 0 0 0-.833-.623l-.074-.029-.072-.035a11.058 11.058 0 0 0-3.585-.7h-.037c-.505-.051-1.019-.092-1.563-.135-1.12-.089-2.278-.181-3.478-.37a22.8 22.8 0 0 1-2.741-.615 9.958 9.958 0 0 1-1.188-.413l-.292-.115-.049-.019-.048-.021a6.186 6.186 0 0 1-.631-.334l-.157-.091a5.514 5.514 0 0 1-.878-.584 6.84 6.84 0 0 1-2.391-3.283 11 11 0 0 1-.525-3.186v-.041c-.005-.28-.007-.556-.008-.83a8.219 8.219 0 0 0-.405-3.2l-4.439-10.355 7.737 8.189a10.114 10.114 0 0 1 2.2 5.018c.039.178.078.354.118.525l.009.043c.249 1.192.587 1.905 1 2.121l.039.02.038.022a10.593 10.593 0 0 0 3.449.77c1 .107 2.037.167 3.13.231.536.031 1.079.063 1.63.1h.037l.1.011a23.386 23.386 0 0 1 2.712.4 11.213 11.213 0 0 1 3.123 1.091 8.915 8.915 0 0 1 2.85 2.393l.033.041.031.042a14.746 14.746 0 0 1 1.36 2.326l.118.237c.715 1.4 1.328 2.837 1.921 4.228l.162.381c.1.229.191.454.285.68a15.715 15.715 0 0 0 1.66 3.268l6.765 9.238z" class="cls-1" transform="translate(-498.59 -204.564)"/>
                <path id="Path_58" d="M604.924 284.705a14.392 14.392 0 0 0-1.306-2.28 7 7 0 0 0-2.224-1.881 9.4 9.4 0 0 0-2.619-.909 22.163 22.163 0 0 0-2.565-.374c-1.675-.115-3.277-.173-4.831-.338a11.326 11.326 0 0 1-4.238-1.025c-1.157-.6-1.715-1.908-2.046-3.491-.355-1.532-.649-3.382-1.818-4.62a12.178 12.178 0 0 1 .575 4.777 9.021 9.021 0 0 0 .422 2.627 4.845 4.845 0 0 0 1.736 2.349 3.343 3.343 0 0 0 .6.4c.208.115.417.251.63.346a12.085 12.085 0 0 0 1.29.465 20.748 20.748 0 0 0 2.527.569c1.685.266 3.351.332 4.929.491a12.366 12.366 0 0 1 4.3.894 4.648 4.648 0 0 1 1.583 1.137c.392.466.87 1.2 1.311 1.856l2.66 4.1a13.856 13.856 0 0 0 3.279 3.745 20.929 20.929 0 0 1-2.171-4.344c-.631-1.493-1.269-3.017-2.024-4.494z" class="cls-1" transform="translate(-523.653 -242.739)"/>
                <path id="Path_59" d="M355.568 193.714a38.3 38.3 0 0 1 3.87-10.173 31.8 31.8 0 0 1 3.148-4.653 27.506 27.506 0 0 1 4.048-4.107 29.533 29.533 0 0 1 4.8-3.249l.029-.016a28.437 28.437 0 0 1 5.45-2.191 29.228 29.228 0 0 1 7.991-1.106c.714 0 1.436.026 2.148.078.523.037 1.04.088 1.536.151a27.593 27.593 0 0 1 5.82 1.387l.019.007a20.053 20.053 0 0 1 4.966 2.59q-.057-.368-.146-.721l-2.133-8.472 5.612 6.7a13.008 13.008 0 0 1 1.6 2.44l.01.021a9.981 9.981 0 0 1 1.016 3.156 7.81 7.81 0 0 1 .043 1.677c.233.041.466.08.7.118.535.087 1.085.171 1.64.255 1.123.171 2.285.347 3.458.574a40.838 40.838 0 0 1 5.416 1.327 21.774 21.774 0 0 1 5.364 2.717l.024.016a16.481 16.481 0 0 1 4.38 4.4l1.1 1.673-1.136 1.53a9.755 9.755 0 0 1-2.361 2.269l-.029.02a8.255 8.255 0 0 1-3.142 1.287 7.306 7.306 0 0 1-1.241.107 7.073 7.073 0 0 1-2.24-.359 8.866 8.866 0 0 1-2.715-1.468l2.078-3.394a5.449 5.449 0 0 0 1.611.493 3.17 3.17 0 0 0 .341.018 2.488 2.488 0 0 0 1.312-.332c-.413-.278-.857-.546-1.326-.8a16.935 16.935 0 0 0-3.957-1.435 35.5 35.5 0 0 0-4.539-.673l-5.042-.445c-1.084-.1-1.989-.226-2.862-.389a12.746 12.746 0 0 1-3.518-1.123l-.021-.011a6.777 6.777 0 0 1-2.312-1.907 5.923 5.923 0 0 1-.906-1.647l-.052-.144-.01-.021a3.048 3.048 0 0 0-.535-.52l-.016-.012a11.6 11.6 0 0 0-3.258-1.7 20.9 20.9 0 0 0-4.1-1c-.271-.04-.533-.073-.791-.1a23.486 23.486 0 0 0-15.75 3.944 29.453 29.453 0 0 0-3.485 2.851 35.07 35.07 0 0 0-3.091 3.476 50.462 50.462 0 0 0-5.072 8.244z" class="cls-1" transform="translate(-341.569 -157.539)"/>
                <path id="Path_60" d="M373.88 209.778a31.382 31.382 0 0 1 3.739-3.058 25.48 25.48 0 0 1 17.091-4.286c.289.03.575.066.862.108a22.939 22.939 0 0 1 4.494 1.1 13.519 13.519 0 0 1 3.839 2.02 4.123 4.123 0 0 1 1.09 1.192.493.493 0 0 1 .05.108l.022.046.092.256a3.993 3.993 0 0 0 .605 1.09 4.853 4.853 0 0 0 1.647 1.348 10.748 10.748 0 0 0 2.982.942c.924.172 1.805.281 2.671.363l5.057.447a36.75 36.75 0 0 1 4.809.717 18.859 18.859 0 0 1 4.438 1.617 15.594 15.594 0 0 1 3.394 2.422 7.142 7.142 0 0 1-.942 1.086 5.225 5.225 0 0 1-1.791 1.132 4.92 4.92 0 0 1-2.164.232 7.414 7.414 0 0 1-2.216-.663 6.887 6.887 0 0 0 2.11 1.142 5.173 5.173 0 0 0 2.5.18 6.32 6.32 0 0 0 2.38-.982 7.752 7.752 0 0 0 1.891-1.815l.3-.4-.329-.5a14.556 14.556 0 0 0-3.869-3.875 19.8 19.8 0 0 0-4.857-2.465 39.478 39.478 0 0 0-5.167-1.262c-1.705-.331-3.41-.553-5.045-.82-.818-.136-1.615-.275-2.356-.447-.142-.032-.281-.068-.417-.106a5.76 5.76 0 0 0 .377-2.961 7.914 7.914 0 0 0-.824-2.523 10.944 10.944 0 0 0-1.35-2.064 10.494 10.494 0 0 1 .309 2.334 6.277 6.277 0 0 1-.287 2.136 3.16 3.16 0 0 1-.541.98 8.516 8.516 0 0 0-1.867-2.16 17.225 17.225 0 0 0-5.079-2.793 25.74 25.74 0 0 0-5.388-1.282q-.712-.09-1.429-.14a27.381 27.381 0 0 0-9.449.958 26.432 26.432 0 0 0-5.065 2.038 27.515 27.515 0 0 0-4.49 3.038 25.485 25.485 0 0 0-3.757 3.811 29.93 29.93 0 0 0-2.957 4.368 36.3 36.3 0 0 0-3.671 9.65 52.917 52.917 0 0 1 5.29-8.582 36.3 36.3 0 0 1 3.268-3.677z" class="cls-1" transform="translate(-349.367 -185.413)"/>
                <path id="Path_61" d="M379.635 328.437a44.747 44.747 0 0 1-15.585-8.508l-.019-.016a28.474 28.474 0 0 1-6.2-7.244 20 20 0 0 1-2.035-4.775l-.01-.038a17.763 17.763 0 0 1-.488-2.64l-.075-.686-.007-.845a8.119 8.119 0 0 1 .1-1.553 12.3 12.3 0 0 1 2.351-5.667 16.553 16.553 0 0 1 3.992-3.712 24.672 24.672 0 0 1 4.321-2.332 35.35 35.35 0 0 1 4.355-1.533 54.006 54.006 0 0 1 14.3-1.937c1.059 0 2.133.032 3.192.095l15.833.94L388.167 291l-1.025.27-2.52.672q-.938.254-1.884.52l-6.473 9.357a18.814 18.814 0 0 1-3.042 3.58 13.2 13.2 0 0 1-1.375 1.137c-.153.114-.306.229-.458.348l-.084.066-.09.056-.4.253a16.415 16.415 0 0 1-1.668.971 21.5 21.5 0 0 1-3.763 1.525l.145.237h.142c.145 0 .292 0 .44-.012a8.449 8.449 0 0 0 2.321-.532l.034-.012a13.869 13.869 0 0 0 2.443-1.229c.266-.172.535-.361.821-.561l.39-.272 10.81-8.731-7.574 11.853-.045.061-.3.408c-.241.327-.491.665-.765 1.006l-.039.047a19.752 19.752 0 0 1-2.585 2.609q.317-.112.627-.234a21.794 21.794 0 0 0 4.11-2.181l7.861-5.3-5.045 8.025a26.947 26.947 0 0 1-3.552 4.5q-.308.313-.631.619c1.832 1.5 3.91 3.069 6.395 4.83l10.25 7.264zm-15.888-25.6a14.878 14.878 0 0 0 3.3-.373l.071-.015a10.456 10.456 0 0 0 1.188-.333l.4-.127c.162-.069.326-.136.491-.2a8.107 8.107 0 0 0 1.02-.466l.069-.04.072-.035a14.636 14.636 0 0 0 2.955-2.091l6.984-5.986c-2.556.769-5.112 1.63-7.58 2.645a28.406 28.406 0 0 0-6.378 3.448l-.02.015a6.8 6.8 0 0 0-2.773 3.561h.1z" class="cls-1" transform="translate(-341.283 -256.463)"/>
                <path id="Path_62" d="M395.7 297.042a51.824 51.824 0 0 0-16.839 1.772 33.214 33.214 0 0 0-4.118 1.45 22.545 22.545 0 0 0-3.969 2.141 14.628 14.628 0 0 0-3.518 3.259 10.239 10.239 0 0 0-1.973 4.777 6.624 6.624 0 0 0-.075 1.312l.006.655.066.6a15.713 15.713 0 0 0 .439 2.357 17.93 17.93 0 0 0 1.832 4.289 26.673 26.673 0 0 0 5.779 6.733 42.914 42.914 0 0 0 14.89 8.129 105.009 105.009 0 0 1-8.332-6.457c.081-.063.169-.12.248-.184a23.136 23.136 0 0 0 2.046-1.844 24.9 24.9 0 0 0 3.287-4.169 23.784 23.784 0 0 1-4.493 2.383 20.274 20.274 0 0 1-2.329.761c-.387.1-.776.186-1.158.257-.167.028-.351.059-.526.083q-.68-.675-1.332-1.369c-.251-.273-.49-.554-.734-.832.042-.017.087-.03.129-.047a13.186 13.186 0 0 0 3.17-1.916 17.192 17.192 0 0 0 2.479-2.478c.359-.447.69-.912 1.027-1.362l.906-1.419-1.3 1.046c-.457.314-.9.637-1.354.93a15.537 15.537 0 0 1-2.846 1.42 10.424 10.424 0 0 1-2.9.65 7.1 7.1 0 0 1-1.366-.038 3.674 3.674 0 0 1-.515-.1 20.913 20.913 0 0 1-1.262-2.12q-.338-.668-.622-1.349c.535-.095 1.065-.2 1.587-.331a19.553 19.553 0 0 0 4.2-1.609 20.165 20.165 0 0 0 1.905-1.133 17.957 17.957 0 0 0 1.7-1.377 16.871 16.871 0 0 0 2.758-3.251 16.285 16.285 0 0 1-3.379 2.37 16.654 16.654 0 0 1-1.835.827 18.227 18.227 0 0 1-1.912.547 16.879 16.879 0 0 1-3.873.422 19.109 19.109 0 0 1-1.912-.122c-.072-.009-.141-.022-.213-.032a7.282 7.282 0 0 1 0-1.7c.206-1.994 1.639-3.838 3.628-5.323a30.716 30.716 0 0 1 6.835-3.71 116.6 116.6 0 0 1 14.671-4.627q.541-.144 1.082-.285z" class="cls-1" transform="translate(-349.28 -264.459)"/>
                <path id="Path_63" d="M314.584 215.106c-1.392-.144-2.832-.292-4.278-.568l-.031-.006c-.579-.12-1.149-.257-1.7-.39l-.628-.151c-.116-.03-.233-.057-.35-.084-.264-.061-.563-.131-.874-.229l-1.163-.39-.154-.054c-.682-.24-1.387-.489-2.09-.76l-.07-.027-2.151-1.018a14.107 14.107 0 0 1-2.031-1.129l-.312-.2c-.18-.119-.365-.233-.55-.346a11.543 11.543 0 0 1-1.568-1.1 25.956 25.956 0 0 1-6.868-7.732 29.387 29.387 0 0 1-3.528-9.734 37.814 37.814 0 0 1-.363-10 51.311 51.311 0 0 1 1.8-9.513 57.67 57.67 0 0 1 8.075-17.1l7.865-11.12-4.33 12.914c-1.2 3.589-2.2 6.932-2.993 10.089l3.759-6.617-1.217 9.945a76.206 76.206 0 0 0-.582 12.725 38.226 38.226 0 0 0 2.156 11.64 28.5 28.5 0 0 0 2.477 5.144 32.028 32.028 0 0 0 3.54 4.571 49.765 49.765 0 0 0 9.837 7.585l7.417 4.6z" class="cls-1" transform="translate(-285.704 -141.721)"/>
                <path id="Path_64" d="M312.959 254.24a33.872 33.872 0 0 1-3.781-4.883 30.344 30.344 0 0 1-2.657-5.509 40.535 40.535 0 0 1-2.28-12.249 78.607 78.607 0 0 1 .595-13.058 33.012 33.012 0 0 0-3.926 12.964 31.133 31.133 0 0 0 1.633 13.8 28.522 28.522 0 0 0 1.857 3.981 26.558 26.558 0 0 1-4.026-10.188 49.973 49.973 0 0 1 .455-17.12 119.577 119.577 0 0 1 4.549-17.248 55.673 55.673 0 0 0-7.784 16.5 49.142 49.142 0 0 0-1.733 9.138 35.714 35.714 0 0 0 .34 9.467 27.537 27.537 0 0 0 3.28 9.067 23.794 23.794 0 0 0 6.4 7.187 16.346 16.346 0 0 0 1.971 1.339 14.373 14.373 0 0 0 2.048 1.172l2.122 1c.727.28 1.46.537 2.189.794l1.1.368c.367.116.748.188 1.121.283.749.177 1.491.365 2.239.52 1.5.287 3.026.43 4.526.586a51.969 51.969 0 0 1-10.238-7.911z" class="cls-1" transform="translate(-293.694 -190.717)"/>
            </g>
            <g id="Group_65" transform="translate(45.343 2.02)">
                <g id="Group_64">
                    <g id="Group_63">
                        <path id="Path_65" fill="url(#linear-gradient-2)" d="M555.113 170.629a9.813 9.813 0 0 1-2.044 3.442 26.851 26.851 0 0 1-5.777 4.9 31.793 31.793 0 0 0 4.883-5.572 9.457 9.457 0 0 0 1.409-3.156 2.507 2.507 0 0 0-.81-2.561 4.911 4.911 0 0 0-1.316-.775 15.277 15.277 0 0 0-1.651-.553l-3.585-1.028c-2.406-.661-4.815-1.35-7.245-2.166a24.39 24.39 0 0 1-7.235-3.524 9.85 9.85 0 0 1-2.9-3.579 6.789 6.789 0 0 0-1.821-2.188 18.841 18.841 0 0 0-5.913-3.09 31.426 31.426 0 0 0-6.833-1.453q-1.136-.117-2.278-.158v-4.3c.91.026 1.819.088 2.723.182a33.768 33.768 0 0 1 7.776 1.737 21.793 21.793 0 0 1 7.175 4.035 10.624 10.624 0 0 1 2.753 3.669 5.988 5.988 0 0 0 1.685 2.264 23.091 23.091 0 0 0 6.015 3.344c2.25.932 4.6 1.751 6.943 2.661l3.514 1.373a9.131 9.131 0 0 1 3.595 2.142 4.272 4.272 0 0 1 1.088 2.1 4.759 4.759 0 0 1-.151 2.254z" transform="translate(-512 -144.87)"/>
                        <path id="Path_66" fill="url(#linear-gradient-3)" d="M550.12 216.407l-.3.4a7.752 7.752 0 0 1-1.891 1.815 6.319 6.319 0 0 1-2.38.982 5.173 5.173 0 0 1-2.5-.18 6.887 6.887 0 0 1-2.11-1.142 7.413 7.413 0 0 0 2.216.663 4.92 4.92 0 0 0 2.164-.232 5.225 5.225 0 0 0 1.791-1.132 7.14 7.14 0 0 0 .942-1.086 15.6 15.6 0 0 0-3.394-2.422 18.857 18.857 0 0 0-4.438-1.617 36.749 36.749 0 0 0-4.809-.717l-5.057-.447c-.866-.082-1.747-.19-2.671-.363a10.748 10.748 0 0 1-2.982-.942 4.853 4.853 0 0 1-1.647-1.348 3.992 3.992 0 0 1-.605-1.09l-.092-.256-.022-.046a.5.5 0 0 0-.05-.108 4.123 4.123 0 0 0-1.09-1.192 13.519 13.519 0 0 0-3.839-2.02 22.939 22.939 0 0 0-4.494-1.1c-.286-.042-.573-.078-.862-.108v-4.259q.715.051 1.429.14a25.74 25.74 0 0 1 5.388 1.282 17.226 17.226 0 0 1 5.079 2.793 8.516 8.516 0 0 1 1.867 2.16 3.159 3.159 0 0 0 .541-.98 6.274 6.274 0 0 0 .286-2.136 10.49 10.49 0 0 0-.309-2.334 10.945 10.945 0 0 1 1.35 2.064 7.915 7.915 0 0 1 .824 2.523 5.76 5.76 0 0 1-.377 2.961c.136.038.274.074.417.106.741.172 1.539.311 2.356.447 1.635.266 3.34.489 5.045.82a39.475 39.475 0 0 1 5.168 1.262 19.8 19.8 0 0 1 4.857 2.465 14.556 14.556 0 0 1 3.869 3.875z" transform="translate(-512 -187.722)"/>
                        <path id="Path_67" fill="url(#linear-gradient-4)" d="M534.752 250.383a24.439 24.439 0 0 1-4.332 2.445 12.705 12.705 0 0 1-2.458.775 4.46 4.46 0 0 1-2.911-.26 2.954 2.954 0 0 1-1.25-1.246c-.042-.094-.08-.19-.114-.287l-.058-.2c-.042-.14-.06-.244-.086-.361l-.126-.653c-.146-.84-.248-1.653-.361-2.465q-.322-2.431-.721-4.807a38.819 38.819 0 0 0-2.41-9 12.607 12.607 0 0 0-1.016-1.837c-.076-.108-.158-.2-.236-.3-.395-.126-.83-.252-1.244-.353-.649-.172-1.316-.3-1.986-.429-.671-.114-1.348-.2-2.03-.295-.469-.034-.938-.084-1.411-.118v-3.312c.523-.026 1.046-.036 1.569-.062.11 0 .22.006.331.006A13.176 13.176 0 0 0 512 227v-2.32a15.427 15.427 0 0 1 3.591.916l2.515 1.052a9.857 9.857 0 0 1 2.487 1.377 7.811 7.811 0 0 1 .994 1.03 12 12 0 0 1 .834 1.25 16.42 16.42 0 0 1 1.162 2.555 37.165 37.165 0 0 1 1.769 10.123c.1 1.667.122 3.328.144 4.969l.032 2.426.022.565.02.242.01.1h-.014a1.086 1.086 0 0 0 .379.537 3.126 3.126 0 0 0 1.863.407 11.456 11.456 0 0 0 2.312-.327 30.009 30.009 0 0 0 4.632-1.519z" transform="translate(-512 -208.689)"/>
                        <path id="Path_68" fill="url(#linear-gradient-5)" d="M513.082 297.2q-.541.141-1.082.285v-.337c.361.016.721.032 1.082.052z" transform="translate(-512 -266.638)"/>
                    </g>
                    <path id="Path_69" fill="url(#linear-gradient-6)" d="M604.924 284.705a14.378 14.378 0 0 0-1.306-2.28 7 7 0 0 0-2.224-1.881 9.4 9.4 0 0 0-2.619-.909 22.163 22.163 0 0 0-2.565-.374c-1.675-.115-3.277-.173-4.831-.338a11.326 11.326 0 0 1-4.238-1.025c-1.157-.6-1.715-1.908-2.046-3.491-.355-1.532-.649-3.382-1.818-4.62a12.178 12.178 0 0 1 .575 4.777 9.021 9.021 0 0 0 .422 2.627 4.845 4.845 0 0 0 1.736 2.349 3.354 3.354 0 0 0 .6.4c.208.115.417.251.63.346a12.085 12.085 0 0 0 1.29.465 20.748 20.748 0 0 0 2.527.569c1.685.266 3.351.332 4.929.491a12.366 12.366 0 0 1 4.3.894 4.648 4.648 0 0 1 1.583 1.137c.392.466.87 1.2 1.311 1.856l2.66 4.1a13.856 13.856 0 0 0 3.279 3.745 20.929 20.929 0 0 1-2.171-4.344c-.631-1.493-1.269-3.017-2.024-4.494z" transform="translate(-568.996 -244.758)"/>
                </g>
            </g>
            <g id="Group_67" transform="translate(2.002 2.004)">
                <g id="Group_66">
                    <path id="Path_70" fill="url(#linear-gradient-7)" d="M382.486 144.806v4.3a32.224 32.224 0 0 0-11.571 1.641 26.31 26.31 0 0 0-11.471 7.666 33.4 33.4 0 0 0-6.606 12.623 66.29 66.29 0 0 0-2.38 14.637 50.947 50.947 0 0 1 .3-15.132 38.869 38.869 0 0 1 2.15-7.434 30.81 30.81 0 0 1 3.905-6.831 28.116 28.116 0 0 1 12.713-9.4 34.333 34.333 0 0 1 12.96-2.07z" transform="translate(-339.146 -144.79)"/>
                    <path id="Path_71" fill="url(#linear-gradient-8)" d="M394.71 198.171v4.264a25.48 25.48 0 0 0-17.091 4.286 31.382 31.382 0 0 0-3.739 3.058 36.3 36.3 0 0 0-3.27 3.673 52.917 52.917 0 0 0-5.29 8.582 36.3 36.3 0 0 1 3.671-9.65 29.93 29.93 0 0 1 2.957-4.368 25.485 25.485 0 0 1 3.757-3.811 27.515 27.515 0 0 1 4.49-3.038 26.432 26.432 0 0 1 5.065-2.038 27.381 27.381 0 0 1 9.45-.958z" transform="translate(-351.37 -187.417)"/>
                    <path id="Path_72" fill="url(#linear-gradient-9)" d="M394.71 224.079v2.316a16.775 16.775 0 0 0-6.388-.269 24.818 24.818 0 0 0-8.954 3.206 34.044 34.044 0 0 0-4.029 2.7 41.265 41.265 0 0 0-3.693 3.186 54.6 54.6 0 0 0-6.326 7.47 62.015 62.015 0 0 1 6.063-7.726 40.709 40.709 0 0 1 7.476-6.454 28.063 28.063 0 0 1 9.151-4.071 19 19 0 0 1 6.7-.358z" transform="translate(-351.37 -208.071)"/>
                    <path id="Path_73" fill="url(#linear-gradient-10)" d="M416.394 239.7c.234-.02.469-.036.705-.046v3.316c-.214-.018-.429-.03-.643-.038a29.742 29.742 0 0 0-8.265.731 29.284 29.284 0 0 0-7.883 2.975 31.114 31.114 0 0 0-3.631 2.27 16.946 16.946 0 0 0-1.693 1.332l-1.665 1.391 1.481-1.587a17.25 17.25 0 0 1 1.535-1.551 31.9 31.9 0 0 1 3.4-2.769 30.947 30.947 0 0 1 7.848-4.13 32.581 32.581 0 0 1 8.811-1.894z" transform="translate(-373.759 -220.643)"/>
                    <path id="Path_74" fill="url(#linear-gradient-11)" d="M373.117 305.663a30.716 30.716 0 0 1 6.835-3.71 123.682 123.682 0 0 1 15.752-4.911 51.824 51.824 0 0 0-16.839 1.772 33.214 33.214 0 0 0-4.118 1.45 22.545 22.545 0 0 0-3.969 2.141 14.628 14.628 0 0 0-3.518 3.259 10.239 10.239 0 0 0-1.973 4.777 6.624 6.624 0 0 0-.075 1.312l.006.655.066.6a15.713 15.713 0 0 0 .439 2.357 17.93 17.93 0 0 0 1.832 4.289 26.677 26.677 0 0 0 5.779 6.734 42.916 42.916 0 0 0 14.89 8.129 105.009 105.009 0 0 1-8.332-6.457c.081-.063.169-.12.248-.184a23.136 23.136 0 0 0 2.046-1.844 24.9 24.9 0 0 0 3.287-4.169 23.784 23.784 0 0 1-4.493 2.383 20.274 20.274 0 0 1-2.329.761c-.387.1-.776.186-1.158.257-.167.028-.351.059-.526.082q-.68-.675-1.332-1.369c-.251-.273-.49-.554-.734-.832.042-.017.087-.03.129-.047a13.186 13.186 0 0 0 3.17-1.916 17.192 17.192 0 0 0 2.479-2.478c.359-.447.69-.912 1.027-1.362l.906-1.419-1.3 1.046c-.457.314-.9.637-1.354.93a15.537 15.537 0 0 1-2.846 1.42 10.424 10.424 0 0 1-2.9.65 7.1 7.1 0 0 1-1.366-.038 3.674 3.674 0 0 1-.515-.1 20.913 20.913 0 0 1-1.262-2.12q-.338-.668-.622-1.349c.535-.095 1.065-.2 1.587-.331a19.553 19.553 0 0 0 4.2-1.609 20.165 20.165 0 0 0 1.905-1.133 17.957 17.957 0 0 0 1.7-1.377 16.871 16.871 0 0 0 2.758-3.251 16.285 16.285 0 0 1-3.379 2.37 16.654 16.654 0 0 1-1.835.827 18.227 18.227 0 0 1-1.912.547 16.879 16.879 0 0 1-3.873.422 19.109 19.109 0 0 1-1.912-.122c-.072-.009-.141-.022-.213-.032a7.282 7.282 0 0 1 0-1.7c.222-1.982 1.654-3.825 3.644-5.31z" transform="translate(-351.282 -266.462)"/>
                    <path id="Path_75" fill="url(#linear-gradient-12)" d="M309.178 249.357a30.344 30.344 0 0 1-2.657-5.509 40.535 40.535 0 0 1-2.28-12.249 78.607 78.607 0 0 1 .595-13.058 33.012 33.012 0 0 0-3.926 12.964 31.133 31.133 0 0 0 1.633 13.8 28.522 28.522 0 0 0 1.857 3.981 26.558 26.558 0 0 1-4.026-10.188 49.973 49.973 0 0 1 .455-17.12 119.577 119.577 0 0 1 4.549-17.248 55.673 55.673 0 0 0-7.784 16.5 49.142 49.142 0 0 0-1.733 9.138 35.714 35.714 0 0 0 .34 9.467 27.537 27.537 0 0 0 3.28 9.067 23.8 23.8 0 0 0 6.4 7.187 16.346 16.346 0 0 0 1.971 1.339 14.373 14.373 0 0 0 2.048 1.172l2.122 1c.727.28 1.46.537 2.189.794l1.1.368c.367.116.748.188 1.121.283.749.177 1.491.365 2.239.52 1.5.287 3.026.43 4.526.586a51.969 51.969 0 0 1-10.239-7.913 33.872 33.872 0 0 1-3.78-4.881z" transform="translate(-295.697 -192.721)"/>
                </g>
            </g>
        </g>
    </g>
</svg>
